<?xml version="1.0" encoding="UTF-8"?>
<svg id="_レイヤー_1" data-name="レイヤー 1" xmlns="http://www.w3.org/2000/svg" version="1.1" viewBox="0 0 658 664">
  <defs>
    <style>
      .cls-1 {
        fill: #0029c0;
        stroke-width: 0px;
      }
    </style>
  </defs>
  <path class="cls-1" d="M437.37,26.64h-77.65s0,600.56,0,600.56L331.38,26.64h-65.53s-23.46,496.94-23.46,496.94L218.93,26.64h-27.3s-10.94,0-10.94,0h-25.25s-46.76,0-46.76,0l-21.06,259.57L66.55,26.64H19.79s46.52,341.93,46.52,341.93v265.68s42.62,0,42.62,0v-265.68S152.31,49.62,152.31,49.62l-27.6,584.63h43.7l6.42-168.03h22.65l6.42,168.03h76.96l6.42-168.03h22.65l6.42,168.03h43.37s48.03,0,48.03,0h29.62c30.75,0,55.68-24.93,55.68-55.68V82.32c0-30.75-24.93-55.68-55.68-55.68ZM176.47,423.61l9.7-253.76,9.7,253.76h-19.39ZM288.91,423.61l9.7-253.76,9.7,253.76h-19.39ZM441.64,577.67c0,7.17-5.81,12.98-12.98,12.98h-17.25V70.24h17.25c7.17,0,12.98,5.81,12.98,12.98v494.45Z"/>
  <rect class="cls-1" x="506.81" y="561.6" width="18.53" height="72.13"/>
  <path class="cls-1" d="M516.07,541.88c-5.12,0-9.26,3.57-9.26,7.97s4.15,7.97,9.26,7.97c5.12,0,9.26-3.57,9.26-7.97s-4.15-7.97-9.26-7.97Z"/>
  <path class="cls-1" d="M551.1,560.54h0c-2.32,0-4.54.38-6.63,1.06h-14.61v72.13h18.53v-53.03c0-1.5,1.21-2.71,2.71-2.71s2.71,1.21,2.71,2.71v53.03h18.53v-51.96c0-11.73-9.51-21.24-21.24-21.24Z"/>
  <path class="cls-1" d="M598.29,560.54h0c-11.73,0-21.24,9.51-21.24,21.24v31.73c0,11.73,9.51,21.24,21.24,21.24h0c11.73,0,21.24-9.51,21.24-21.24v-7.99h-18.53v9.06c0,1.5-1.21,2.71-2.71,2.71s-2.71-1.21-2.71-2.71v-33.87c0-1.5,1.21-2.71,2.71-2.71s2.71,1.21,2.71,2.71v9.44h18.53v-8.37c0-11.73-9.51-21.24-21.24-21.24Z"/>
  <path class="cls-1" d="M628.95,621.43c-5.12,0-9.26,3.57-9.26,7.97s4.15,7.97,9.26,7.97,9.26-3.57,9.26-7.97-4.15-7.97-9.26-7.97Z"/>
</svg>