<svg width="239" height="513" viewBox="0 0 239 513" fill="none" xmlns="http://www.w3.org/2000/svg">
<path d="M239.001 91.0924L138.247 69.5142L239.001 47.9126L239.001 1.04471e-05L106.283 47.6783L3.15969 47.6782L3.15969 91.3501L106.283 91.3501L239.001 139.028L239.001 91.0924Z" fill="white"/>
<path d="M239.001 308.281L239.001 269.084L46.1092 245.046L239.001 221.031L239.001 153.86L3.15969 124.479L3.15969 169.276L68.3827 175.86L68.3827 199.078L3.15969 205.661L3.15968 284.524L68.3827 291.107L68.3827 314.326L3.15968 320.909L3.15968 365.706L239.001 336.255L239.001 308.281ZM84.9147 177.5L183.415 187.434L84.9147 197.367L84.9147 177.5ZM84.9147 292.724L183.415 302.658L84.9147 312.592L84.9147 292.724Z" fill="white"/>
<path d="M239.001 455.951L239.001 376.386L3.15969 376.386L3.15969 455.951C3.15969 487.463 12.8322 513.001 24.7676 513.001L217.393 513.001C229.328 513.001 239.001 487.463 239.001 455.951ZM25.1225 460.332C22.3361 460.332 20.0822 454.381 20.0822 447.025L20.0822 429.336L222.078 429.336L222.078 447.025C222.078 454.381 219.824 460.332 217.038 460.332L25.1225 460.332Z" fill="white"/>
</svg>
